<svg xmlns="http://www.w3.org/2000/svg" width="42" height="42" viewBox="0 0 42 42">
  <g id="Grupo_574" data-name="Grupo 574" transform="translate(-1569 -44)">
    <rect id="Retângulo_40" data-name="Retângulo 40" width="42" height="42" rx="5" transform="translate(1569 44)" fill="#f2b544"/>
    <path id="Caminho_84" data-name="Caminho 84" d="M1836.225,249.434a1.539,1.539,0,1,1,1.556-1.521A1.535,1.535,0,0,1,1836.225,249.434Zm-6.673,11.583a6.466,6.466,0,1,1,6.466-6.466A6.478,6.478,0,0,1,1829.552,261.017Zm0-10.2a3.734,3.734,0,0,0,0,7.469,3.734,3.734,0,0,0,0-7.469Zm12.552,9.958a6.331,6.331,0,0,1-6.328,6.328h-12.448a6.331,6.331,0,0,1-6.328-6.328V248.328a6.331,6.331,0,0,1,6.328-6.328h12.448a6.331,6.331,0,0,1,6.328,6.328Zm-6.328-16.044h-12.448a3.616,3.616,0,0,0-3.6,3.6v12.448a3.593,3.593,0,0,0,3.6,3.6h12.448a3.571,3.571,0,0,0,3.6-3.6V248.328A3.593,3.593,0,0,0,1835.776,244.732Z" transform="translate(-239.173 -189.632)" fill="#fff"/>
  </g>
</svg>
