<svg id="Camada_x0020_1" xmlns="http://www.w3.org/2000/svg" xmlns:xlink="http://www.w3.org/1999/xlink" width="292.243" height="74.728" viewBox="0 0 292.243 74.728">
  <defs>
    <linearGradient id="linear-gradient" x1="1" y1="0.5" x2="0" y2="0.5" gradientUnits="objectBoundingBox">
      <stop offset="0" stop-color="#f2b544"/>
      <stop offset="1" stop-color="#dba033"/>
    </linearGradient>
    <linearGradient id="linear-gradient-2" x1="1" y1="0.5" x2="0" y2="0.5" xlink:href="#linear-gradient"/>
  </defs>
  <path id="Caminho_78" data-name="Caminho 78" d="M6056.94,202.874a12.1,12.1,0,0,1-3.437,1.866,14.5,14.5,0,0,1-4.84.794,16.756,16.756,0,0,1-6.614-1.293,15.524,15.524,0,0,1-5.358-3.713,16.713,16.713,0,0,1-3.455-5.709,20.259,20.259,0,0,1-1.2-7,21.229,21.229,0,0,1,1.164-7.094,16.411,16.411,0,0,1,3.362-5.727,14.95,14.95,0,0,1,5.229-3.75,16.464,16.464,0,0,1,6.5-1.275,14.3,14.3,0,0,1,3.566.425,13.1,13.1,0,0,1,3.232,1.256,13.411,13.411,0,0,1,2,1.349,12.715,12.715,0,0,1,1.256,1.164v-3.4h7.113v27.12a.557.557,0,0,0,.038.2.083.083,0,0,0,.018.055.446.446,0,0,0,.129.055,1.16,1.16,0,0,0,.3.037h2.586v6.5h-4.23a5.875,5.875,0,0,1-2.236-.425,5.508,5.508,0,0,1-1.847-1.238,5.392,5.392,0,0,1-.887-1.164,4.451,4.451,0,0,1-.406-.905q-.305.36-.666.72A11.648,11.648,0,0,1,6056.94,202.874ZM5912.6,202.19a16.209,16.209,0,0,1-4.748,2.494,17.8,17.8,0,0,1-5.45.85,18.235,18.235,0,0,1-6.836-1.293,16.539,16.539,0,0,1-5.413-3.566h0l-.184-.185a16.956,16.956,0,0,1-3.695-5.764,19.618,19.618,0,0,1,0-13.911,17.635,17.635,0,0,1,3.695-5.745,17.029,17.029,0,0,1,5.616-3.787,17.949,17.949,0,0,1,12.193-.462,15.645,15.645,0,0,1,4.729,2.476,15.382,15.382,0,0,1,3.565,3.843,16.457,16.457,0,0,1,2.069,4.914l.259,1.108-6.983,1.607-.222-1.164a8.787,8.787,0,0,0-1.016-2.808,8.077,8.077,0,0,0-1.94-2.235,8.455,8.455,0,0,0-2.66-1.459,9.511,9.511,0,0,0-3.1-.5,10.2,10.2,0,0,0-4.046.794,9.279,9.279,0,0,0-3.27,2.291,10.9,10.9,0,0,0-2.161,3.6,13.512,13.512,0,0,0,0,8.923,10.629,10.629,0,0,0,2.161,3.584,9.97,9.97,0,0,0,3.326,2.309,10.608,10.608,0,0,0,4.1.794,9.541,9.541,0,0,0,3.122-.5,8.658,8.658,0,0,0,2.66-1.459,8.007,8.007,0,0,0,1.921-2.235,8.481,8.481,0,0,0,1.034-2.827l.2-1.145,7,1.607-.259,1.108a16.215,16.215,0,0,1-2.087,4.9A15.457,15.457,0,0,1,5912.6,202.19Zm34.991.684a12.118,12.118,0,0,1-3.436,1.866,14.506,14.506,0,0,1-4.84.794,16.762,16.762,0,0,1-6.614-1.293,15.511,15.511,0,0,1-5.357-3.713,16.991,16.991,0,0,1-3.455-5.709,20.236,20.236,0,0,1-1.2-7,21.241,21.241,0,0,1,1.164-7.094,16.694,16.694,0,0,1,3.362-5.727,15.112,15.112,0,0,1,5.229-3.75,16.526,16.526,0,0,1,6.5-1.275,14.184,14.184,0,0,1,3.565.425,13.1,13.1,0,0,1,3.233,1.256,11.743,11.743,0,0,1,2,1.349,11.007,11.007,0,0,1,1.256,1.164v-3.4h7.131v27.12a.663.663,0,0,0,.018.2.08.08,0,0,0,.019.055.883.883,0,0,0,.13.055,1.142,1.142,0,0,0,.295.037h2.586v6.5h-4.23a5.94,5.94,0,0,1-2.235-.425,5.51,5.51,0,0,1-1.848-1.238,6.918,6.918,0,0,1-.887-1.164,5.809,5.809,0,0,1-.406-.905q-.3.36-.665.72A11.692,11.692,0,0,1,5947.591,202.874Zm-14.983-6.983a9,9,0,0,0,3.1,2.291,9.78,9.78,0,0,0,3.843.776,9.645,9.645,0,0,0,3.806-.757,8.979,8.979,0,0,0,3.048-2.254,10.659,10.659,0,0,0,2.051-3.6,13.5,13.5,0,0,0,.72-4.471,14.484,14.484,0,0,0-.683-4.582,10.3,10.3,0,0,0-2-3.6,9,9,0,0,0-3.123-2.291,9.648,9.648,0,0,0-3.879-.794,9.163,9.163,0,0,0-3.805.794,8.738,8.738,0,0,0-3.067,2.309,10.7,10.7,0,0,0-2.051,3.621,14.223,14.223,0,0,0-.7,4.545,13.6,13.6,0,0,0,.7,4.471A10.158,10.158,0,0,0,5932.608,195.891Zm44.246,8.849h-1.09a14.641,14.641,0,0,1-4.563-.647,8.881,8.881,0,0,1-3.4-1.958,8.13,8.13,0,0,1-2.106-3.214,12.793,12.793,0,0,1-.7-4.341v-17.5h-3.714v-6.318h4.028v-9.219h6.743v9.219h5.764v6.318h-5.764v17.44a7.351,7.351,0,0,0,.2,1.829,2.753,2.753,0,0,0,.61,1.127,2.676,2.676,0,0,0,1.09.61,6.636,6.636,0,0,0,1.755.2h2.254v6.447Zm15.149-39h.019l-.185.185a4.43,4.43,0,0,1-1.515,1,4.857,4.857,0,0,1-1.811.333,4.693,4.693,0,0,1-1.792-.333,4.62,4.62,0,0,1-1.5-1,4.372,4.372,0,0,1-.979-1.515,4.854,4.854,0,0,1-.332-1.81,4.5,4.5,0,0,1,1.33-3.27,4.059,4.059,0,0,1,1.478-.979,4.768,4.768,0,0,1,1.792-.351,4.865,4.865,0,0,1,1.811.351,4.525,4.525,0,0,1,1.5.961,4.343,4.343,0,0,1,1,1.5,4.849,4.849,0,0,1,.351,1.792,4.969,4.969,0,0,1-.351,1.829A4.209,4.209,0,0,1,5992,165.741Zm-.332,39h-5.949V177.084h-2.993v-6.318h10.05V204.74Zm25.439,0h-7.132q-6.318-16.987-12.673-33.974h7.593l8.96,25.494,8.923-25.494h7.7l-1.164,3.159c-3.343,8.978-6.707,18.068-11.38,30.63l-.056.185Zm24.848-8.849a8.99,8.99,0,0,0,3.1,2.291,9.919,9.919,0,0,0,7.647.018,8.99,8.99,0,0,0,3.049-2.254,10.977,10.977,0,0,0,2.05-3.6,13.5,13.5,0,0,0,.721-4.471,14.469,14.469,0,0,0-.684-4.582,10.324,10.324,0,0,0-2.013-3.6,8.77,8.77,0,0,0-3.1-2.291,9.712,9.712,0,0,0-3.88-.794,9.169,9.169,0,0,0-3.806.794,8.977,8.977,0,0,0-3.085,2.309,10.959,10.959,0,0,0-2.032,3.621,14.21,14.21,0,0,0-.7,4.545,13.591,13.591,0,0,0,.7,4.471A10.126,10.126,0,0,0,6041.958,195.891Z" transform="translate(-5776.28 -155.081)" fill="#fff"/>
  <path id="Caminho_79" data-name="Caminho 79" d="M6205.427,3459.809a2.756,2.756,0,0,0-.406-1.33,2.844,2.844,0,0,0-.887-.868,3.838,3.838,0,0,0-1.146-.462,5.3,5.3,0,0,0-1.183-.148,4.474,4.474,0,0,0-1.626.3,3.257,3.257,0,0,0-1.2.794,3.733,3.733,0,0,0-.739,1.219,4.345,4.345,0,0,0-.24,1.478,4.526,4.526,0,0,0,.314,1.755,3.309,3.309,0,0,0,.868,1.2,3.626,3.626,0,0,0,1.219.683,5.161,5.161,0,0,0,1.4.2,3.8,3.8,0,0,0,1.4-.24,3.362,3.362,0,0,0,1.884-1.589,3.067,3.067,0,0,0,.333-1.127h-1.071a2.446,2.446,0,0,1-.888,1.515,2.635,2.635,0,0,1-1.644.5,3.25,3.25,0,0,1-1.257-.222,2.161,2.161,0,0,1-.849-.647,2.6,2.6,0,0,1-.5-.887,3.652,3.652,0,0,1-.147-1.016,3.081,3.081,0,0,1,.739-2.217,2.789,2.789,0,0,1,2.069-.758,2.612,2.612,0,0,1,1.718.518,2.122,2.122,0,0,1,.758,1.349Zm1.81,1.016a4.562,4.562,0,0,0,.222,1.4,3.435,3.435,0,0,0,.72,1.219,3.287,3.287,0,0,0,1.256.85,5.2,5.2,0,0,0,3.659,0,3.341,3.341,0,0,0,1.976-2.069,4.616,4.616,0,0,0,0-2.827,3.343,3.343,0,0,0-1.976-2.069,5.205,5.205,0,0,0-3.659,0,3.291,3.291,0,0,0-1.256.85,3.43,3.43,0,0,0-.72,1.219A4.593,4.593,0,0,0,6207.237,3460.824Zm6.984,0a2.729,2.729,0,0,1-.832,2.125,3.424,3.424,0,0,1-4.25,0,3.154,3.154,0,0,1,0-4.268,3.425,3.425,0,0,1,4.25,0A2.718,2.718,0,0,1,6214.221,3460.824Zm9,3.621h1.256v-7.26h-1.09v5.782h-.018l-4.657-5.782h-1.256v7.26h1.072v-5.764h.019Zm3.177-2.383a2.475,2.475,0,0,0,.278,1.219,2.4,2.4,0,0,0,.757.794,3.31,3.31,0,0,0,1.052.425,5.467,5.467,0,0,0,1.257.129,4.471,4.471,0,0,0,1.126-.129,2.955,2.955,0,0,0,1-.388,1.845,1.845,0,0,0,.72-.739,2.166,2.166,0,0,0,.277-1.127,1.6,1.6,0,0,0-.241-.868,1.877,1.877,0,0,0-.591-.554,2.558,2.558,0,0,0-.665-.277c-.221-.056-.443-.111-.683-.166h-.019l-1.774-.3a1.739,1.739,0,0,1-.9-.351.788.788,0,0,1-.277-.61.906.906,0,0,1,.147-.535,1.075,1.075,0,0,1,.388-.37,1.69,1.69,0,0,1,.537-.2,2.28,2.28,0,0,1,.609-.074,3.369,3.369,0,0,1,1.035.129,1.764,1.764,0,0,1,.646.314,1.643,1.643,0,0,1,.333.406,2.007,2.007,0,0,1,.147.5h1.071a2.283,2.283,0,0,0-.314-1.072,2.176,2.176,0,0,0-.7-.72,3.332,3.332,0,0,0-.96-.37,4.336,4.336,0,0,0-1.109-.129,3.362,3.362,0,0,0-2.142.609,1.9,1.9,0,0,0-.776,1.607,1.746,1.746,0,0,0,.2.85,1.913,1.913,0,0,0,.535.554,3.156,3.156,0,0,0,.666.314c.24.074.5.129.758.185l1.644.259a2.391,2.391,0,0,1,1.016.369.847.847,0,0,1,.333.721.991.991,0,0,1-.535.905,2.85,2.85,0,0,1-1.423.314,4.311,4.311,0,0,1-.851-.074,2.335,2.335,0,0,1-.738-.259,1.58,1.58,0,0,1-.536-.517,1.426,1.426,0,0,1-.2-.776Zm8.333-.369c0,1.958,1.09,2.937,3.288,2.937q3.271,0,3.27-2.937v-4.508h-1.072v4.655a1.587,1.587,0,0,1-.59,1.386,3.061,3.061,0,0,1-3.233,0,1.637,1.637,0,0,1-.592-1.386v-4.655h-1.07Zm9.107,2.753h5.486v-.942h-4.415v-6.318h-1.072Zm8.147,0h1.07v-6.318h2.753v-.942h-6.558v.942h2.734Zm5.172-3.621a4.562,4.562,0,0,0,.222,1.4,3.452,3.452,0,0,0,.721,1.219,3.284,3.284,0,0,0,1.257.85,5.2,5.2,0,0,0,3.658,0,3.287,3.287,0,0,0,1.256-.85,3.435,3.435,0,0,0,.72-1.219,4.626,4.626,0,0,0,0-2.827,3.43,3.43,0,0,0-.72-1.219,3.291,3.291,0,0,0-1.256-.85,5.2,5.2,0,0,0-3.658,0,3.287,3.287,0,0,0-1.257.85,3.447,3.447,0,0,0-.721,1.219A4.593,4.593,0,0,0,6257.154,3460.824Zm6.983,0a2.73,2.73,0,0,1-.831,2.125,3.424,3.424,0,0,1-4.25,0,3.154,3.154,0,0,1,0-4.268,3.425,3.425,0,0,1,4.25,0A2.719,2.719,0,0,1,6264.137,3460.824Zm3.233,3.621h1.09v-3.085h2.808a1.26,1.26,0,0,1,1.017.388,2.164,2.164,0,0,1,.388,1.312v.24c.037.388.055.665.074.794a.681.681,0,0,0,.148.351h1.126a1.785,1.785,0,0,1-.147-.24,1.452,1.452,0,0,1-.074-.333,3.4,3.4,0,0,1-.074-.517c0-.2-.019-.5-.038-.887a2.025,2.025,0,0,0-.314-1.053,1,1,0,0,0-.739-.48v-.018a1.627,1.627,0,0,0,.886-.665,1.884,1.884,0,0,0,.333-1.127,1.823,1.823,0,0,0-.129-.7,1.867,1.867,0,0,0-.333-.628,1.743,1.743,0,0,0-.627-.443,2.267,2.267,0,0,0-.906-.166h-4.489Zm1.09-4.009v-2.309h3.029a1.286,1.286,0,0,1,.96.314,1.142,1.142,0,0,1,.315.85,1.532,1.532,0,0,1-.056.406.908.908,0,0,1-.609.628,1.693,1.693,0,0,1-.646.111Zm7.63,4.009h1.071v-7.26h-1.071Zm8.091-3.048h-2.752l1.367-3.215Zm1.331,3.048h1.238l-3.289-7.26h-1.237l-3.271,7.26h1.146l.923-2.106h3.566Zm8.517,0h1.071v-3.251h4.323v-.924H6295.1v-2.143h4.544v-.942h-5.615Zm7.63,0h1.071v-7.26h-1.071Zm9.477,0h1.256v-7.26h-1.09v5.782h-.018l-4.656-5.782h-1.256v7.26h1.071v-5.764h.019Zm8.221-3.048H6316.6l1.367-3.215Zm1.331,3.048h1.219l-3.27-7.26H6317.4l-3.288,7.26h1.164l.924-2.106h3.565Zm8.72,0h1.238v-7.26h-1.072v5.782h-.019l-4.655-5.782h-1.257v7.26h1.071v-5.764h.019Zm10.844-4.637a2.772,2.772,0,0,0-.425-1.33,2.656,2.656,0,0,0-.887-.868,3.73,3.73,0,0,0-1.127-.462,5.463,5.463,0,0,0-1.2-.148,4.471,4.471,0,0,0-1.625.3,3.413,3.413,0,0,0-1.2.794,3.672,3.672,0,0,0-.72,1.219,4.354,4.354,0,0,0-.259,1.478,4.2,4.2,0,0,0,.333,1.755,3.094,3.094,0,0,0,.869,1.2,3.607,3.607,0,0,0,1.219.683,5.047,5.047,0,0,0,1.4.2,3.762,3.762,0,0,0,1.385-.24,3.208,3.208,0,0,0,1.885-1.589,3.078,3.078,0,0,0,.351-1.127h-1.072a2.447,2.447,0,0,1-.886,1.515,2.7,2.7,0,0,1-1.663.5,3.308,3.308,0,0,1-1.256-.222,2.468,2.468,0,0,1-1.331-1.534,3.062,3.062,0,0,1-.147-1.016,3.006,3.006,0,0,1,.739-2.217,2.775,2.775,0,0,1,2.05-.758,2.544,2.544,0,0,1,1.718.518,2.142,2.142,0,0,1,.776,1.349Zm2.18,4.637h5.949v-.942h-4.858v-2.346h4.6v-.924h-4.6v-2.106h4.748v-.942h-5.838Zm8.2,0h1.071v-7.26h-1.071Zm3.731,0h1.073v-3.085h2.807a1.3,1.3,0,0,1,1.035.388,2.313,2.313,0,0,1,.37,1.312,1.642,1.642,0,0,0,.018.24,4.835,4.835,0,0,0,.074.794.669.669,0,0,0,.13.351h1.146a1.746,1.746,0,0,1-.148-.24,1.477,1.477,0,0,1-.093-.333c-.018-.148-.036-.314-.054-.517s-.037-.5-.056-.887a2.034,2.034,0,0,0-.3-1.053,1.035,1.035,0,0,0-.758-.48v-.018a1.681,1.681,0,0,0,.905-.665,2.015,2.015,0,0,0,.314-1.127,2.252,2.252,0,0,0-.11-.7,1.632,1.632,0,0,0-.351-.628,1.539,1.539,0,0,0-.61-.443,2.327,2.327,0,0,0-.905-.166h-4.489Zm1.073-4.009v-2.309h3.029a1.284,1.284,0,0,1,.96.314,1.083,1.083,0,0,1,.333.85,1.057,1.057,0,0,1-.074.406,1.031,1.031,0,0,1-.2.37.919.919,0,0,1-.407.259,1.6,1.6,0,0,1-.628.111Zm11.97.961h-2.752l1.348-3.215Zm1.313,3.048h1.237l-3.289-7.26h-1.238l-3.269,7.26h1.145l.943-2.106h3.546Z" transform="translate(-6083.497 -3393.135)" fill="#f2b544"/>
  <path id="Caminho_80" data-name="Caminho 80" d="M857.924,781.425c.794-.628,1.663-1.312,2.549-2.032,7.223-5.838,16.017-12.932,23.536-7.168,2,1.533,3.529,2.18,5.043,2.2a11.918,11.918,0,0,0,5.154-1.607c1.072-.536,2.069-1.035,3.011-1.515.905-.443,2-1,3.215-1.607,12.267-6.226,27.12-14.114,27.157-14.133l.055-.018a5.92,5.92,0,0,1,2.106-.61c.573,0,.831.277.831.739a1.243,1.243,0,0,1-.314.776,11.455,11.455,0,0,1-2.457,2.125l-.018.018c-.037.018-16.091,10.734-25.79,16.812h0c-.924.573-1.792,1.108-2.66,1.626-.85.5-1.7,1-2.6,1.478-9.015,4.822-11.842,2.642-14.558.573a7.692,7.692,0,0,0-3.418-1.829,25.859,25.859,0,0,0-5.838,3.252c-3.953,2.679-8.276,6.115-9.588,7.242a4.16,4.16,0,0,1-3.03,1,4.093,4.093,0,0,1-2.808-1.4l-.037-.037a4.153,4.153,0,0,1,.406-5.838h.018Z" transform="translate(-840.632 -740.985)" fill="#fff" fill-rule="evenodd"/>
  <path id="Caminho_81" data-name="Caminho 81" d="M1857,482.423h6.115v3.362a28.2,28.2,0,0,1-6.115,0Zm6.115-55.256v3.362H1857v-3.362a28.186,28.186,0,0,1,6.115,0Z" transform="translate(-1822.693 -419.112)" fill-rule="evenodd" fill="url(#linear-gradient)"/>
  <path id="Caminho_82" data-name="Caminho 82" d="M74.728,37.355a36.479,36.479,0,0,1-.72,7.3A36.681,36.681,0,0,1,68.447,58.1a38.378,38.378,0,0,1-4.656,5.69A37.272,37.272,0,0,1,37.355,74.728a36.3,36.3,0,0,1-7.279-.72,37.383,37.383,0,0,1-7-2.106,38.071,38.071,0,0,1-6.466-3.455,39.2,39.2,0,0,1-5.672-4.656A38.377,38.377,0,0,1,6.281,58.1,36.681,36.681,0,0,1,.72,44.652a37.221,37.221,0,0,1,0-14.576,37.384,37.384,0,0,1,2.106-7,38.071,38.071,0,0,1,3.455-6.466A37.468,37.468,0,0,1,16.608,6.281a38.071,38.071,0,0,1,6.466-3.455,37.384,37.384,0,0,1,7-2.106A36.3,36.3,0,0,1,37.355,0a39.213,39.213,0,0,1,4.452.259,37.366,37.366,0,0,1,4.378.794,35.45,35.45,0,0,1,4.249,1.312,36.467,36.467,0,0,1,7.907,4.083A39.671,39.671,0,0,1,61.87,9.163c.924.813,1.81,1.663,2.66,2.568a34.966,34.966,0,0,1,2.4,2.808l.24.3-4.508,2.586L62.5,17.2c-.61-.739-1.238-1.459-1.9-2.161-.665-.684-1.367-1.349-2.088-1.977A31.506,31.506,0,0,0,55.441,10.7a30.862,30.862,0,0,0-3.288-1.958,31.186,31.186,0,0,0-3.51-1.552A29.99,29.99,0,0,0,44.985,6.06a34.846,34.846,0,0,0-3.769-.684,33.1,33.1,0,0,0-3.861-.222,33.523,33.523,0,0,0-6.281.61,32.5,32.5,0,0,0-6.023,1.829A32.15,32.15,0,0,0,7.593,25.051a32.5,32.5,0,0,0-1.829,6.023,32.758,32.758,0,0,0,0,12.581,32.935,32.935,0,0,0,1.829,6.023,32.11,32.11,0,0,0,7,10.456,31.6,31.6,0,0,0,10.456,7,32.5,32.5,0,0,0,6.023,1.829,32.758,32.758,0,0,0,12.581,0,32.936,32.936,0,0,0,6.023-1.829A32.4,32.4,0,0,0,66.655,50.767,31.641,31.641,0,0,0,69.482,39.72l.018-.166,5.228-3.011Z" fill-rule="evenodd" fill="url(#linear-gradient-2)"/>
</svg>
