<svg xmlns="http://www.w3.org/2000/svg" width="50.521" height="50.53" viewBox="0 0 50.521 50.53">
  <path id="Caminho_56" data-name="Caminho 56" d="M40.823,27.924c-1.042,2.925-3.9,11.062.908,12.172a5.959,5.959,0,0,0,3.53-.538,3.637,3.637,0,0,1,4.808,2.589c1.648,5.178-3.463,8.305-8.07,8.036-4.808.2-8.406-3.3-9.616-7.8-2.421-7.128,1.446-15.1,4.136-21.519,2.387-5.716,4.472-10.995,2.757-11.533C35.443,8.086,28.483,23.62,26.432,26.074,25.02,27.756,23.238,29.4,21.12,29.4c-3.833,0-5.111-3.06-5.111-7.027,0-3.732.773-5.951,1.345-9.347.3-1.614.572-3.228-.807-3.7C12.579,7.985-.635,45.408,13.554,39.49a3.638,3.638,0,0,1,4.808,2.589C20.447,48.7,11.5,50.922,7.8,49.914a9.806,9.806,0,0,1-6.657-6.12C-.769,39.02-.2,32.665.676,27.722c.168-.807.3-1.58.5-2.32A77.432,77.432,0,0,1,4.778,14c.572-1.446,1.177-2.892,1.883-4.27C9.419,4.185,12.747-.32,18.732-.32c9.381,0,2.085,16.711,4.875,17.35,2.757.639,7.767-14.761,13.685-16.946C41.6-1.5,46.64,1.6,47.481,6.707,48.758,11.347,42.672,22.611,40.823,27.924Z" transform="translate(0.135 0.332)" fill="#8a8ea6" fill-rule="evenodd"/>
</svg>
