<svg xmlns="http://www.w3.org/2000/svg" width="42" height="42" viewBox="0 0 42 42">
  <g id="Grupo_576" data-name="Grupo 576" transform="translate(-1692 -43)">
    <rect id="Retângulo_42" data-name="Retângulo 42" width="42" height="42" rx="5" transform="translate(1692 43)" fill="#f2b544"/>
    <path id="Caminho_86" data-name="Caminho 86" d="M5054.366,283.192c-1.591-.1-2.248-.9-3.492-1.66-.691,3.561-1.521,6.985-3.977,8.783-.761-5.394,1.106-9.44,1.971-13.727-1.452-2.524.208-7.538,3.319-6.293,3.873,1.521-3.319,9.3,1.487,10.269,5.048,1,7.123-8.748,3.977-11.929-4.5-4.6-13.14-.1-12.068,6.466.242,1.591,1.9,2.075.657,4.288-2.9-.622-3.769-2.9-3.63-5.947.172-4.979,4.46-8.471,8.748-8.956,5.464-.622,10.581,2.005,11.272,7.123C5063.425,277.383,5060.175,283.641,5054.366,283.192Z" transform="translate(-3339.236 -212.253)" fill="#fff"/>
  </g>
</svg>
