<svg xmlns="http://www.w3.org/2000/svg" width="52" height="52" viewBox="0 0 52 52">
  <g id="Grupo_577" data-name="Grupo 577" transform="translate(-604 -6839)">
    <rect id="Retângulo_42" data-name="Retângulo 42" width="52" height="52" rx="5" transform="translate(604 6839)" fill="#f2b544"/>
    <path id="Caminho_86" data-name="Caminho 86" d="M5057.23,287.766c-1.978-.129-2.794-1.118-4.342-2.064-.859,4.428-1.892,8.684-4.944,10.92-.945-6.707,1.376-11.737,2.45-17.068-1.806-3.138.259-9.372,4.127-7.825,4.816,1.892-4.127,11.565,1.85,12.769,6.276,1.247,8.856-10.877,4.944-14.832-5.589-5.718-16.337-.129-15,8.04.3,1.978,2.365,2.58.816,5.331-3.61-.774-4.686-3.611-4.514-7.395.215-6.191,5.546-10.533,10.877-11.135,6.793-.774,13.155,2.494,14.016,8.856C5068.494,280.543,5064.453,288.325,5057.23,287.766Z" transform="translate(-4424.803 6585.972)" fill="#fff"/>
  </g>
</svg>
