<svg xmlns="http://www.w3.org/2000/svg" width="52" height="52" viewBox="0 0 52 52">
  <g id="Grupo_575" data-name="Grupo 575" transform="translate(-468 -6839)">
    <rect id="Retângulo_40" data-name="Retângulo 40" width="52" height="52" rx="5" transform="translate(468 6839)" fill="#f2b544"/>
    <path id="Caminho_84" data-name="Caminho 84" d="M1840.9,251.243a1.913,1.913,0,1,1,1.935-1.892A1.908,1.908,0,0,1,1840.9,251.243Zm-8.3,14.4a8.04,8.04,0,1,1,8.04-8.04A8.055,8.055,0,0,1,1832.606,265.646Zm0-12.683a4.643,4.643,0,0,0,0,9.286,4.643,4.643,0,0,0,0-9.286Zm15.606,12.382a7.871,7.871,0,0,1-7.868,7.868h-15.477a7.871,7.871,0,0,1-7.868-7.868V249.868a7.871,7.871,0,0,1,7.868-7.868h15.477a7.871,7.871,0,0,1,7.868,7.868Zm-7.868-19.948h-15.477a4.5,4.5,0,0,0-4.471,4.471v15.477a4.468,4.468,0,0,0,4.471,4.471h15.477a4.441,4.441,0,0,0,4.471-4.471V249.868A4.468,4.468,0,0,0,1840.345,245.4Z" transform="translate(-1337.883 6607.404)" fill="#fff"/>
  </g>
</svg>
