<svg xmlns="http://www.w3.org/2000/svg" width="52" height="52" viewBox="0 0 52 52">
  <g id="Grupo_574" data-name="Grupo 574" transform="translate(-401 -6839)">
    <rect id="Retângulo_39" data-name="Retângulo 39" width="52" height="52" rx="5" transform="translate(401 6839)" fill="#f2b544"/>
    <path id="Caminho_83" data-name="Caminho 83" d="M319.934,274.939v10.705h-6.191V275.67c0-2.537-.9-4.213-3.138-4.213a3.4,3.4,0,0,0-3.181,2.236,4.352,4.352,0,0,0-.215,1.548v10.4h-6.191s.086-16.9,0-18.659h6.191v2.665a.042.042,0,0,0-.043.043h.043v-.043a6.1,6.1,0,0,1,5.589-3.1C316.881,266.555,319.934,269.221,319.934,274.939ZM294.525,258a3.234,3.234,0,1,0-.086,6.449h.043a3.236,3.236,0,1,0,.043-6.449Zm-3.138,27.644h6.191V266.985h-6.191Z" transform="translate(122.511 6592.092)" fill="#fff"/>
  </g>
</svg>
