<svg xmlns="http://www.w3.org/2000/svg" width="42" height="42" viewBox="0 0 42 42">
  <g id="Grupo_573" data-name="Grupo 573" transform="translate(-1529 -43)">
    <rect id="Retângulo_39" data-name="Retângulo 39" width="42" height="42" rx="5" transform="translate(1529 43)" fill="#f2b544"/>
    <path id="Caminho_83" data-name="Caminho 83" d="M314.271,271.623v8.61h-4.979v-8.022c0-2.04-.726-3.389-2.524-3.389a2.73,2.73,0,0,0-2.559,1.8,3.5,3.5,0,0,0-.173,1.245v8.368h-4.979s.069-13.589,0-15.007h4.979v2.144a.034.034,0,0,0-.035.035h.035v-.035a4.9,4.9,0,0,1,4.5-2.49C311.816,264.881,314.271,267.025,314.271,271.623ZM293.835,258a2.6,2.6,0,1,0-.069,5.187h.035a2.6,2.6,0,1,0,.035-5.187Zm-2.524,22.233h4.979V265.227h-4.979Z" transform="translate(1248.062 -206.079)" fill="#fff"/>
  </g>
</svg>
