<svg id="Camada_x0020_1" xmlns="http://www.w3.org/2000/svg" width="114.155" height="114.155" viewBox="0 0 114.155 114.155">
  <g id="_104696760">
    <path id="Caminho_93" data-name="Caminho 93" d="M92.7,53.713H89.013c0,20.253-16.571,38.665-38.665,38.665-20.253,0-38.665-18.412-38.665-38.665s14.73-36.824,34.983-38.665L41.142,18.73l3.682,1.841,9.206-7.365L44.824,4,41.142,5.841l5.524,5.524A42.19,42.19,0,0,0,8,53.713C8,77.648,26.412,96.061,50.348,96.061S92.7,77.648,92.7,53.713Z" transform="translate(6.73 3.365)" fill="#fff"/>
    <path id="Caminho_94" data-name="Caminho 94" d="M24,0h3.682V3.682H25.841Z" transform="translate(20.189)" fill="#fff"/>
    <path id="Caminho_95" data-name="Caminho 95" d="M18,2h3.682l1.841,1.841L19.841,5.682Z" transform="translate(15.142 1.682)" fill="#fff"/>
    <path id="Caminho_96" data-name="Caminho 96" d="M13,5.841,16.682,4l1.841,3.682L14.841,9.524Z" transform="translate(10.936 3.365)" fill="#fff"/>
    <path id="Caminho_97" data-name="Caminho 97" d="M8,9.841,11.682,8l1.841,1.841-1.841,3.682Z" transform="translate(6.73 6.73)" fill="#fff"/>
    <path id="Caminho_98" data-name="Caminho 98" d="M33.047,20.682C27.524,20.682,22,26.206,22,33.571v1.841A12.585,12.585,0,0,0,34.888,48.3h7.365c1.841,0,1.841,0,1.841,1.841v1.841a1.8,1.8,0,0,1-1.841,1.841H34.888l-1.841-1.841V50.142H22v1.841c0,5.524,5.524,11.047,11.047,12.888h0v1.841a1.8,1.8,0,0,0,1.841,1.841h0c1.841,0,1.841,0,1.841-1.841V64.871h3.682v1.841a1.8,1.8,0,0,0,1.841,1.841h0c1.841,0,1.841,0,1.841-1.841V64.871h0c7.365-1.841,11.047-7.365,11.047-12.888V50.142A12.585,12.585,0,0,0,42.253,37.253H34.888l-1.841-1.841V33.571a1.8,1.8,0,0,1,1.841-1.841h7.365c1.841,0,1.841,0,1.841,1.841v1.841H55.142V33.571c0-7.365-3.682-12.888-11.047-12.888h0V18.841c0-1.841,0-1.841-1.841-1.841h0a1.8,1.8,0,0,0-1.841,1.841v1.841H36.73V18.841C36.73,17,36.73,17,34.888,17h0a1.8,1.8,0,0,0-1.841,1.841v1.841Zm9.206,3.682c5.524,0,9.206,1.841,9.206,7.365H47.777c0-1.841-1.841-3.682-5.524-3.682H34.888c-1.841,0-5.524,1.841-5.524,5.524v1.841c0,1.841,3.682,5.524,5.524,5.524h7.365c5.524,0,9.206,3.682,9.206,9.206v1.841c0,5.524-3.682,9.206-9.206,9.206H34.888c-3.682,0-7.365-3.682-9.206-7.365h3.682c1.841,1.841,3.682,3.682,5.524,3.682h7.365c3.682,0,5.524-3.682,5.524-5.524V50.142q0-5.524-5.524-5.524H34.888c-5.524,0-9.206-3.682-9.206-9.206V33.571c0-5.524,3.682-9.206,9.206-9.206Z" transform="translate(18.507 14.301)" fill="#1d2b59"/>
    <path id="Caminho_99" data-name="Caminho 99" d="M16.571,12.841,12.888,11C5.524,22.047,0,34.936,0,47.824S5.524,75.442,14.73,86.49l1.841-3.682C9.206,73.6,3.682,60.713,3.682,47.824S7.365,22.047,16.571,12.841Z" transform="translate(0 9.253)" fill="#fff"/>
    <path id="Caminho_100" data-name="Caminho 100" d="M36,60.841,39.682,59v3.682L36,64.524Z" transform="translate(30.284 49.631)" fill="#fff"/>
    <path id="Caminho_101" data-name="Caminho 101" d="M41,58.841,44.682,57l1.841,3.682-3.682,1.841Z" transform="translate(34.49 47.949)" fill="#fff"/>
    <path id="Caminho_102" data-name="Caminho 102" d="M47,57.682,48.841,54l1.841,3.682-1.841,1.841Z" transform="translate(39.537 45.425)" fill="#fff"/>
    <path id="Caminho_103" data-name="Caminho 103" d="M51,52.841,54.682,51l1.841,1.841-1.841,3.682Z" transform="translate(42.902 42.902)" fill="#fff"/>
    <path id="Caminho_104" data-name="Caminho 104" d="M54.841,10,53,11.841c9.206,11.047,12.888,23.936,12.888,36.824S62.206,72.6,54.841,81.807l1.841,3.682c9.206-11.047,12.888-23.936,12.888-36.824C69.571,33.936,65.888,21.047,54.841,10Z" transform="translate(44.584 8.412)" fill="#fff"/>
  </g>
</svg>
